<?xml version="1.0" encoding="UTF-8"?>
<svg id="Layer_1" data-name="Layer 1" xmlns="http://www.w3.org/2000/svg" viewBox="0 0 1080 942.15">
  <defs>
    <style>
      .cls-1 {
        fill: none;
        stroke: #000;
        stroke-linecap: square;
        stroke-linejoin: round;
        stroke-width: 15px;
      }

      .cls-2 {
        fill: #cadb46;
      }

      .cls-3 {
        fill: #414042;
      }
    </style>
  </defs>
  <rect class="cls-2" x="431.74" y="357.49" width="232.65" height="232.65" rx="37.95" ry="37.95"/>
  <path class="cls-1" d="m476.95,450.49v28.68c0,7.98,4.66,15.22,11.92,18.53l50.76,23.12c5.36,2.44,11.52,2.44,16.88,0l50.76-23.12c7.26-3.31,11.92-10.55,11.92-18.53v-28.68"/>
  <g>
    <path class="cls-3" d="m469.9,630.41h-4.44l-1.77-4.6h-8.09l-1.67,4.6h-4.33l7.88-20.23h4.32l8.1,20.23Zm-7.52-8l-2.79-7.51-2.73,7.51h5.52Z"/>
    <path class="cls-3" d="m480.42,630.41v-20.23h4.08v20.23h-4.08Z"/>
    <path class="cls-3" d="m526.15,622.97l3.96,1.26c-.61,2.21-1.62,3.85-3.03,4.92s-3.2,1.61-5.38,1.61c-2.69,0-4.89-.92-6.62-2.75-1.73-1.84-2.59-4.34-2.59-7.53,0-3.37.87-5.98,2.61-7.85,1.74-1.86,4.02-2.79,6.86-2.79,2.47,0,4.49.73,6.03,2.19.92.86,1.61,2.11,2.07,3.73l-4.04.97c-.24-1.05-.74-1.88-1.5-2.48-.76-.61-1.68-.91-2.77-.91-1.5,0-2.72.54-3.65,1.61-.93,1.08-1.4,2.82-1.4,5.23,0,2.56.46,4.38,1.38,5.46s2.12,1.63,3.59,1.63c1.09,0,2.02-.35,2.8-1.04s1.34-1.78,1.68-3.26Z"/>
    <path class="cls-3" d="m541.27,620.42c0-2.06.31-3.79.92-5.19.46-1.03,1.09-1.95,1.88-2.77.79-.82,1.67-1.43,2.61-1.82,1.26-.53,2.71-.8,4.36-.8,2.98,0,5.37.92,7.16,2.77,1.79,1.85,2.68,4.42,2.68,7.71s-.89,5.82-2.66,7.67c-1.78,1.84-4.15,2.77-7.12,2.77s-5.4-.92-7.18-2.75-2.66-4.36-2.66-7.58Zm4.21-.14c0,2.29.53,4.03,1.59,5.21s2.4,1.77,4.03,1.77,2.96-.59,4.01-1.76c1.04-1.17,1.57-2.93,1.57-5.28s-.51-4.05-1.53-5.19c-1.02-1.14-2.37-1.71-4.05-1.71s-3.04.58-4.07,1.73c-1.03,1.15-1.55,2.9-1.55,5.22Z"/>
    <path class="cls-3" d="m590.8,630.41h-4.44l-1.77-4.6h-8.09l-1.67,4.6h-4.33l7.88-20.23h4.32l8.1,20.23Zm-7.52-8l-2.79-7.51-2.73,7.51h5.52Z"/>
    <path class="cls-3" d="m614.39,622.97l3.96,1.26c-.61,2.21-1.62,3.85-3.03,4.92s-3.2,1.61-5.38,1.61c-2.69,0-4.89-.92-6.62-2.75-1.73-1.84-2.59-4.34-2.59-7.53,0-3.37.87-5.98,2.61-7.85,1.74-1.86,4.02-2.79,6.86-2.79,2.47,0,4.49.73,6.03,2.19.92.86,1.61,2.11,2.07,3.73l-4.04.97c-.24-1.05-.74-1.88-1.5-2.48-.76-.61-1.68-.91-2.77-.91-1.5,0-2.72.54-3.65,1.61-.93,1.08-1.4,2.82-1.4,5.23,0,2.56.46,4.38,1.38,5.46s2.12,1.63,3.59,1.63c1.09,0,2.02-.35,2.8-1.04s1.34-1.78,1.68-3.26Z"/>
    <path class="cls-3" d="m630.35,630.41v-20.23h4.08v7.96h8v-7.96h4.08v20.23h-4.08v-8.85h-8v8.85h-4.08Z"/>
  </g>
</svg>