<?xml version="1.0" encoding="UTF-8"?>
<svg id="Layer_1" data-name="Layer 1" xmlns="http://www.w3.org/2000/svg" viewBox="0 0 1080 942.15">
  <defs>
    <style>
      .cls-1 {
        fill: #fff;
      }

      .cls-2 {
        fill: none;
        stroke: #fff;
        stroke-linecap: square;
        stroke-linejoin: round;
        stroke-width: 17px;
      }

      .cls-3 {
        fill: #cadb46;
      }
    </style>
  </defs>
  <rect class="cls-3" x="424.28" y="360.5" width="237.73" height="237.73" rx="37.95" ry="37.95"/>
  <path class="cls-2" d="m470.48,455.53v29.31c0,8.15,4.76,15.55,12.18,18.93l51.87,23.63c5.48,2.5,11.77,2.5,17.25,0l51.87-23.63c7.42-3.38,12.18-10.78,12.18-18.93v-29.31"/>
  <g>
    <path class="cls-1" d="m463.27,639.38h-4.54l-1.81-4.7h-8.26l-1.71,4.7h-4.43l8.05-20.67h4.41l8.28,20.67Zm-7.69-8.18l-2.85-7.67-2.79,7.67h5.64Z"/>
    <path class="cls-1" d="m474.02,639.38v-20.67h4.17v20.67h-4.17Z"/>
    <path class="cls-1" d="m520.76,631.78l4.05,1.28c-.62,2.26-1.65,3.93-3.1,5.03s-3.27,1.64-5.49,1.64c-2.75,0-5-.94-6.77-2.81-1.77-1.88-2.65-4.44-2.65-7.69,0-3.44.89-6.11,2.67-8.02,1.78-1.9,4.11-2.86,7.01-2.86,2.53,0,4.58.75,6.16,2.24.94.88,1.64,2.15,2.11,3.81l-4.13.99c-.24-1.07-.75-1.92-1.53-2.54-.78-.62-1.72-.93-2.83-.93-1.53,0-2.78.55-3.73,1.65-.95,1.1-1.43,2.88-1.43,5.34,0,2.61.47,4.48,1.41,5.58s2.16,1.66,3.67,1.66c1.11,0,2.06-.35,2.86-1.06s1.37-1.81,1.72-3.33Z"/>
    <path class="cls-1" d="m536.2,629.17c0-2.11.31-3.87.95-5.3.47-1.05,1.11-2,1.92-2.83.81-.84,1.7-1.46,2.67-1.86,1.29-.55,2.77-.82,4.46-.82,3.05,0,5.48.95,7.31,2.83,1.83,1.89,2.74,4.52,2.74,7.88s-.91,5.95-2.72,7.83c-1.82,1.89-4.24,2.83-7.28,2.83s-5.52-.94-7.33-2.81-2.72-4.46-2.72-7.75Zm4.3-.14c0,2.34.54,4.12,1.62,5.32s2.45,1.81,4.12,1.81,3.03-.6,4.1-1.8c1.07-1.2,1.6-3,1.6-5.39s-.52-4.14-1.56-5.3c-1.04-1.17-2.42-1.75-4.14-1.75s-3.11.59-4.16,1.77c-1.05,1.18-1.58,2.96-1.58,5.34Z"/>
    <path class="cls-1" d="m586.82,639.38h-4.54l-1.81-4.7h-8.26l-1.71,4.7h-4.43l8.05-20.67h4.41l8.28,20.67Zm-7.69-8.18l-2.85-7.67-2.79,7.67h5.64Z"/>
    <path class="cls-1" d="m610.93,631.78l4.05,1.28c-.62,2.26-1.65,3.93-3.1,5.03s-3.27,1.64-5.49,1.64c-2.75,0-5-.94-6.77-2.81-1.77-1.88-2.65-4.44-2.65-7.69,0-3.44.89-6.11,2.67-8.02,1.78-1.9,4.11-2.86,7.01-2.86,2.53,0,4.58.75,6.16,2.24.94.88,1.64,2.15,2.11,3.81l-4.13.99c-.24-1.07-.75-1.92-1.53-2.54-.78-.62-1.72-.93-2.83-.93-1.53,0-2.78.55-3.73,1.65-.95,1.1-1.43,2.88-1.43,5.34,0,2.61.47,4.48,1.41,5.58s2.16,1.66,3.67,1.66c1.11,0,2.06-.35,2.86-1.06s1.37-1.81,1.72-3.33Z"/>
    <path class="cls-1" d="m627.24,639.38v-20.67h4.17v8.14h8.18v-8.14h4.17v20.67h-4.17v-9.04h-8.18v9.04h-4.17Z"/>
  </g>
</svg>