<?xml version="1.0" encoding="UTF-8"?>
<svg id="Layer_1" data-name="Layer 1" xmlns="http://www.w3.org/2000/svg" viewBox="0 0 1080 942.15">
  <defs>
    <style>
      .cls-1 {
        fill: #cadb46;
      }
    </style>
  </defs>
  <path class="cls-1" d="m472.44,477.91v25.21h8v-25.21c0-5,.49-7.7,1.59-8.74,1.49-1.41,5.87-1.59,9.53-1.59h47.29v-8h-47.29c-14.82,0-19.11,4.11-19.12,18.33Z"/>
  <path class="cls-1" d="m449.69,459.62c-8.08-.05-12.41-.09-15.29-.12q-5.74-.06-17.94.1l-6.05.08c-6.68.08-18.01,2.83-18.93,20.23-.28,5.27,1.49,10.2,4.98,13.9,3.7,3.92,8.92,6.1,14.7,6.13l4.55.02q6.61.04,7.81.03c1.05,0,3.04-.02,11.3-.02h4v-8h-4c-8.3,0-10.29.01-11.36.02q-1.19,0-7.72-.03l-4.56-.02c-3.57-.02-6.74-1.3-8.92-3.62-2-2.12-2.97-4.88-2.81-7.99.58-11.03,5.91-12.59,11.04-12.65l6.05-.08q12.1-.16,17.75-.1c2.88.03,7.22.08,15.33.12,4.19.03,5.34,1.23,5.38,5.62.04,5.22.03,12.19.02,18.34,0,2.51,0,4.91,0,7.03v4h8v-4c0-2.12,0-4.51,0-7.02,0-6.17.02-13.15-.02-18.41-.07-8.69-4.8-13.5-13.33-13.56Z"/>
  <path class="cls-1" d="m372.07,474.24c0,2.24-1.25,4.28-3.19,5.19l-24.6,11.56c-1.38.65-2.97.65-4.35,0l-24.6-11.56c-1.94-.91-3.19-2.95-3.19-5.19v-13.16h-9v13.16c0,5.71,3.28,10.95,8.36,13.34l24.6,11.56c1.91.9,3.96,1.35,6,1.35s4.1-.45,6-1.35l24.6-11.56c5.08-2.39,8.36-7.62,8.36-13.34v-13.16h-9v13.16Z"/>
  <path class="cls-1" d="m753.88,479.04h-12.33c1.89-1.38,3.82-2.77,5.72-4.15,4.58-3.32,9.32-6.75,13.32-9.77l3.19-2.42-4.83-6.38-3.19,2.42c-3.93,2.98-8.63,6.38-13.18,9.67-4.58,3.31-9.31,6.73-13.3,9.76l-1.15.88h-11.63v-23.9h-8v47.87h8v-15.96h37.29c5.67.14,8.57.69,9.69,1.85,1.17,1.21,1.67,4.23,1.67,10.11v4h8v-4c0-15.49-3.94-19.59-19.27-19.96Z"/>
  <polygon class="cls-1" points="630.76 466.27 660.59 466.27 660.59 492.63 630.76 492.63 630.76 499.33 698.43 499.33 698.43 492.63 668.59 492.63 668.59 466.27 698.43 466.27 698.43 459.56 630.76 459.56 630.76 466.27"/>
  <path class="cls-1" d="m607.77,458.91h-62.82v8h62.82c1.49,0,2.7,1.21,2.7,2.7v3.52c0,1.49-1.21,2.7-2.7,2.7h-52.86c-5.9,0-10.7,4.8-10.7,10.7v2.73c0,5.9,4.8,10.7,10.7,10.7h63.08v-8h-63.08c-1.49,0-2.7-1.21-2.7-2.7v-2.73c0-1.49,1.21-2.7,2.7-2.7h52.86c5.9,0,10.7-4.8,10.7-10.7v-3.52c0-5.9-4.8-10.7-10.7-10.7Z"/>
</svg>